/* XPM */
static char * D:\programming\QtQGen\misc\icons\toolbar_folder_new_xpm[] = {
"24 24 107 2",
"  	c None",
". 	c #21AC15",
"+ 	c #3AC931",
"@ 	c #2FC525",
"# 	c #24C319",
"$ 	c #37B92C",
"% 	c #68D45A",
"& 	c #58CD49",
"* 	c #2EC01B",
"= 	c #6ED165",
"- 	c #72D565",
"; 	c #31B826",
"> 	c #47BA3D",
", 	c #2DBF1A",
"' 	c #76D869",
") 	c #3DBA32",
"! 	c #52BA46",
"~ 	c #3BC62E",
"{ 	c #7DDD70",
"] 	c #4ABD3F",
"^ 	c #5FBC54",
"/ 	c #66D258",
"( 	c #4FCB40",
"_ 	c #52CC42",
": 	c #7CDD6D",
"< 	c #82E172",
"[ 	c #55BE4A",
"} 	c #61BD55",
"| 	c #61D550",
"1 	c #51D13F",
"2 	c #88E678",
"3 	c #72DD61",
"4 	c #56D245",
"5 	c #95EF84",
"6 	c #58C04D",
"7 	c #1CAC11",
"8 	c #2EB823",
"9 	c #41BE35",
"0 	c #4BBC40",
"a 	c #6DDC5C",
"b 	c #67E052",
"c 	c #8CEF79",
"d 	c #64C257",
"e 	c #64B95A",
"f 	c #4DAE41",
"g 	c #32C628",
"h 	c #5ED44E",
"i 	c #7DE46C",
"j 	c #78E864",
"k 	c #92F17E",
"l 	c #8AF075",
"m 	c #80EC6A",
"n 	c #75E65D",
"o 	c #68DB57",
"p 	c #5BD344",
"q 	c #51CA3C",
"r 	c #47BF32",
"s 	c #57CD48",
"t 	c #78E366",
"u 	c #7CE968",
"v 	c #77EC60",
"w 	c #72EC58",
"x 	c #70EA56",
"y 	c #6BE452",
"z 	c #63DD4C",
"A 	c #3CB62A",
"B 	c #65E54E",
"C 	c #69EA50",
"D 	c #33AE22",
"E 	c #30C626",
"F 	c #5BD847",
"G 	c #52DB3B",
"H 	c #5EE446",
"I 	c #CB9833",
"J 	c #C5922D",
"K 	c #2CA71B",
"L 	c #3EB533",
"M 	c #4CD437",
"N 	c #FFFFFF",
"O 	c #FFFFBA",
"P 	c #C18E29",
"Q 	c #26A116",
"R 	c #33B728",
"S 	c #4BCF38",
"T 	c #45D22F",
"U 	c #DBB771",
"V 	c #DBB752",
"W 	c #BD8A25",
"X 	c #BA8722",
"Y 	c #B5821D",
"Z 	c #B07E18",
"` 	c #2BB11F",
" .	c #5FC052",
"..	c #6FC361",
"+.	c #FFFF99",
"@.	c #A5730D",
"#.	c #76C268",
"$.	c #71C164",
"%.	c #FFF893",
"&.	c #A06E08",
"*.	c #FFEF89",
"=.	c #FFE47F",
"-.	c #41B635",
";.	c #FFDB75",
">.	c #996701",
",.	c #2FAB23",
"'.	c #FFD46F",
"                                                ",
"                . + @ # + + + .                 ",
"                $ % & * = - - ;                 ",
"                > % % , % - ' )                 ",
"                ! % % ~ & ' { ]                 ",
"                ^ / % ( _ : < [                 ",
"                } | / | 1 < 2 [                 ",
"                ^ | % 3 4 2 5 6                 ",
"  7 8 $ 9 > 0 [ = | a 3 b c 5 { 6 6 d e e } f   ",
"  g & & & & & & h | 3 i j c k l m n o p q r d   ",
"  g & & & & s h | a t u v w w x y z p q r A }   ",
"  g & s _ _ & | o b B C x w x y z p q r A D !   ",
"  E _ _ _ & h F G H C x I I I I J q r A D K L   ",
"  E _ _ _ 4 M G H C x I N N N O O P A D K Q R   ",
"  @ _ _ S T G H C x I U V V V V V U W X Y Y Y Z ",
"  7 ` R 9 !  .d : w I N N N N N N N N N N N N Z ",
"                ..x I +.+.+.+.+.+.+.+.+.+.+.+.@.",
"                #.y J +.+.+.+.+.+.+.+.+.+.+.+.@.",
"                $.z J +.%.%.%.%.%.%.%.%.%.%.+.&.",
"                } p P +.*.*.*.*.*.*.*.*.*.*.+.&.",
"                ! q P +.=.=.=.=.=.=.=.=.=.=.+.&.",
"                -.r W +.;.;.;.;.;.;.;.;.;.;.+.>.",
"                ,.9 X +.'.'.'.'.'.'.'.'.'.'.+.>.",
"                      Y Y Z Z Z @.@.@.&.&.&.>.  "};
